<svg id="as" height="512" viewBox="0 0 48 48" width="512" xmlns="http://www.w3.org/2000/svg"><path d="m4 7v22c0 1.66 1.34 3 3 3h16.81c.19.44.46.84.78 1.16 0 .91.37 1.9 1.11 2.65.38.38.83.67 1.3.85v6.35c0 .37.2.71.53.88s.72.15 1.03-.05l2.45-1.63 2.45 1.63c.31.2.7.22 1.03.05s.53-.51.53-.88v-6.35c.47-.18.92-.47 1.3-.85.74-.74 1.11-1.73 1.11-2.65.32-.32.58-.71.77-1.16h2.81c1.66 0 3-1.34 3-3v-22c0-1.66-1.34-3-3-3h-34.01c-1.66 0-3 1.34-3 3zm25 30.43v3.7l1.45-.96c.34-.22.77-.22 1.11 0l1.45.96v-3.7c-.57.35-1.26.57-2 .57s-1.43-.22-2-.57zm-.42-11.33c.4.08.8-.09 1.02-.42.27-.41.81-.68 1.4-.68s1.12.28 1.4.68c.22.33.63.5 1.02.42.48-.09 1.05.09 1.47.5.41.42.6.99.5 1.47-.08.4.09.8.42 1.02.41.27.68.81.68 1.4s-.28 1.12-.68 1.4c-.33.22-.5.63-.42 1.02.09.48-.09 1.05-.5 1.47-.42.41-.99.6-1.47.5-.4-.08-.8.09-1.02.42-.27.41-.81.68-1.4.68s-1.12-.28-1.4-.68c-.22-.33-.63-.5-1.02-.42-.48.09-1.05-.09-1.47-.5-.41-.42-.6-.99-.5-1.47.08-.4-.09-.8-.42-1.02-.41-.27-.68-.81-.68-1.4s.28-1.12.68-1.4c.33-.22.5-.63.42-1.02-.09-.48.09-1.05.5-1.47.42-.41.99-.6 1.47-.5zm-.18 5.69 2 1.5c.22.16.49.23.75.19.27-.04.51-.19.66-.41l2.5-3.5c.32-.45.22-1.07-.23-1.4-.45-.32-1.07-.22-1.4.23l-1.9 2.67-1.18-.89c-.44-.33-1.07-.24-1.4.2s-.24 1.07.2 1.4zm-22.4-3.8v1c0 .55.45 1 1 1h1c0-1.1-.9-2-2-2zm4-21.99c0 2.21-1.79 4-4 4v16c2.21 0 4 1.79 4 4h13.53c.11-.85.51-1.62 1.05-2.16 0-.91.37-1.9 1.11-2.65.74-.74 1.73-1.11 2.65-1.11.65-.64 1.61-1.08 2.66-1.08s2.01.44 2.66 1.08c.91 0 1.9.37 2.65 1.11.74.74 1.11 1.74 1.11 2.65.54.54.94 1.31 1.05 2.16h2.53c.55 0 1-.45 1-1v-22c0-.55-.45-1-1-1zm9 6h-8c-.31 0-.61.15-.8.4l-3 4c-.28.38-.26.9.05 1.26l7 8c.19.22.46.34.75.34s.56-.12.75-.34l7-8c.31-.36.33-.88.05-1.26l-3-4c-.19-.25-.49-.4-.8-.4zm-5.52 6 1.52 3.81 1.52-3.81zm15.52 3h7c.55 0 1-.45 1-1s-.45-1-1-1h-7c-.55 0-1 .45-1 1s.45 1 1 1zm-10.32-3-.94 2.36 2.06-2.36zm-7.36 0h-1.12l2.06 2.36zm14.68 0h13c.55 0 1-.45 1-1s-.45-1-1-1h-13c-.55 0-1 .45-1 1s.45 1 1 1zm-7.5-4h-.88l1 2h1.38zm-7 0-1.5 2h1.38l1-2zm3.12 0-1 2h2.76l-1-2zm25.38-5c0-.55-.45-1-1-1h-13c-.55 0-1 .45-1 1v4c0 .55.45 1 1 1h13c.55 0 1-.45 1-1zm-2 1v2h-11v-2zm-30-4h-1c-.55 0-1 .45-1 1v1c1.1 0 2-.9 2-2z" fill-rule="evenodd"/></svg>