<svg id="Capa_1" enable-background="new 0 0 512 512" height="512" viewBox="0 0 512 512" width="512" xmlns="http://www.w3.org/2000/svg"><g><path d="m349.315 184.476v-184.476h-197.278l57.546 58.24-105.275 103.863c-18.675 18.425-33.277 40.04-43.398 64.244-10.121 24.205-15.253 49.779-15.253 76.013v109.354h29.951c0-44.348 18.091-87.662 49.634-118.836l161.388-159.499z"/><path d="m436.392 100.285c0 44.348-18.091 87.662-49.634 118.836l-161.388 159.499-62.686-51.097v184.477h197.278l-57.546-58.241 105.274-103.863c18.675-18.425 33.277-40.04 43.398-64.244 10.121-24.205 15.253-49.779 15.253-76.013v-109.354z"/></g></svg>