<svg height="512pt" viewBox="-70 0 512 512" width="512pt" xmlns="http://www.w3.org/2000/svg"><path d="m161.835938 38c-5.523438 0-10-4.476562-10-10v-18c0-5.523438 4.476562-10 10-10 5.519531 0 10 4.476562 10 10v18c0 5.523438-4.480469 10-10 10zm0 0"/><path d="m81.21875 71.394531c-2.5625 0-5.121094-.976562-7.074219-2.929687l-12.726562-12.726563c-3.90625-3.90625-3.90625-10.238281 0-14.144531 3.902343-3.902344 10.234375-3.902344 14.140625 0l12.730468 12.730469c3.90625 3.902343 3.90625 10.234375 0 14.140625-1.953124 1.953125-4.511718 2.929687-7.070312 2.929687zm0 0"/><path d="m242.449219 71.394531c-2.558594 0-5.117188-.976562-7.070313-2.929687-3.90625-3.90625-3.90625-10.238282 0-14.144532l12.730469-12.726562c3.902344-3.90625 10.234375-3.90625 14.140625 0s3.90625 10.234375 0 14.140625l-12.730469 12.730469c-1.953125 1.953125-4.511719 2.929687-7.070312 2.929687zm0 0"/><path d="m293.84375 152.007812h-18c-5.523438 0-10-4.476562-10-10 0-5.523437 4.476562-10 10-10h18c5.519531 0 10 4.476563 10 10 0 5.523438-4.480469 10-10 10zm0 0"/><path d="m47.824219 152.007812h-18c-5.523438 0-10-4.476562-10-10 0-5.523437 4.476562-10 10-10h18c5.523437 0 10 4.476563 10 10 0 5.523438-4.476563 10-10 10zm0 0"/><path d="m161.84375 281.199219c-.160156 0-.316406-.003907-.476562-.007813-6.582032-.308594-10.011719-5.511718-9.902344-10.253906.109375-4.738281 3.78125-9.777344 10.371094-9.777344 5.519531 0 10 4.480469 10 10 0 1.667969-.410157 3.238282-1.128907 4.617188-1.660156 3.238281-5.027343 5.421875-8.863281 5.421875zm0 0"/><path d="m363.261719 300.710938c-23.082031-3.453126-41.996094-7.296876-56.671875-21.945313-20.441406-42.285156-57.125-72.390625-100.855469-84.511719l52.464844-69.617187v-.003907c2.394531-3.058593 2.714843-7.257812.824219-10.648437-.367188-.65625-.617188-1.097656-.621094-1.105469-.007813-.011718-34.011719-48.035156-34.011719-48.035156-1.875-2.648438-4.917969-4.222656-8.160156-4.222656h-108.789063c-3.246094 0-6.289062 1.574218-8.164062 4.222656l-33.980469 47.992188s-.003906.003906-.003906.003906c-2.347657 3.535156-2.304688 8.152344.085937 11.660156.054688.085938.089844.132812.089844.132812l52.546875 69.726563c-68.015625 19.152344-118.015625 81.75-118.015625 155.804687 0 89.238282 72.597656 161.835938 161.835938 161.835938 25.816406 0 51.503906-6.230469 74.285156-18.023438 19.339844-10.007812 36.671875-24.035156 50.582031-40.863281 2.277344 1.324219 4.386719 2.511719 6.269531 3.550781 1.484375.820313 3.148438 1.253907 4.84375 1.253907h.386719c1.695313 0 3.359375-.429688 4.84375-1.25 7.867187-4.347657 19.683594-11.304688 31.289063-19.761719 11.085937-8.082031 20.078124-16.097656 26.726562-23.820312 6.914062-8.03125 10.71875-18.46875 10.71875-29.386719v-73.097657c-.003906-4.953124-3.625-9.15625-8.519531-9.890624zm-173.757813-118.152344 17.359375-53.941406h23.292969zm-27.667968-95.757813 17.15625 21.816407h-34.316407zm49.222656-6.179687 19.820312 27.996094h-26.445312l-22.011719-27.996094zm-98.445313 0h28.636719l-22.015625 27.996094h-26.445313zm4.191407 47.996094 17.359374 53.941406-40.648437-53.941406zm21.007812 0h48.039062l-19.238281 59.785156c-1.589843-.042969-3.183593-.066406-4.78125-.066406-1.597656 0-3.1875.023437-4.777343.070312zm24.023438 363.382812c-78.207032 0-141.835938-63.625-141.835938-141.832031s63.628906-141.832031 141.835938-141.832031c52.660156 0 99.5 28.058593 124 73.738281-5.257813 4.445312-11.007813 7.726562-17.253907 10.25-20.898437-39.667969-61.113281-63.984375-106.746093-63.984375-67.179688 0-121.832032 54.652344-121.832032 121.828125 0 67.179687 54.652344 121.828125 121.832032 121.828125 35.003906 0 68.472656-15.332032 91.503906-41.480469 2.632812 2.121094 5.417968 4.253906 8.347656 6.390625 2.632812 1.917969 5.273438 3.757812 7.878906 5.507812-26.816406 31.226563-66.34375 49.585938-107.730468 49.585938zm70.925781-191.289062c-4.898438.734374-8.519531 4.9375-8.519531 9.890624v69.082032c-.066407.128906-.132813.257812-.195313.386718-11.445313 23.753907-35.863281 39.105469-62.210937 39.105469-38.050782 0-69.007813-30.957031-69.007813-69.007812 0-26.675781 15.617187-51.222657 39.789063-62.535157 5-2.34375 7.15625-8.292968 4.816406-13.296874-2.339844-5-8.292969-7.15625-13.296875-4.816407-31.167969 14.589844-51.308594 46.246094-51.308594 80.648438 0 49.078125 39.929687 89.007812 89.007813 89.007812 26.726562 0 51.910156-12.246093 68.625-32.375 1.308593 2.21875 2.808593 4.324219 4.496093 6.285157 1.132813 1.3125 2.328125 2.632812 3.59375 3.960937-19.265625 22.027344-47.347656 34.953125-76.714843 34.953125-56.152344 0-101.832032-45.683594-101.832032-101.832031 0-56.148438 45.679688-101.828125 101.832032-101.828125 36.636718 0 69.085937 18.765625 87.015624 49.636718-5.117187 1.03125-10.480468 1.894532-16.089843 2.734376zm119.015625 82.988281c0 6.132812-2.085938 11.9375-5.875 16.335937-3.882813 4.515625-11.085938 11.769532-23.351563 20.707032-8.691406 6.339843-17.566406 11.796874-24.539062 15.808593-6.972657-4.007812-15.847657-9.464843-24.542969-15.808593-12.261719-8.933594-19.46875-16.191407-23.355469-20.707032-3.785156-4.398437-5.871093-10.203125-5.871093-16.335937v-64.558594c19.488281-3.300781 38.074218-8.269531 53.769531-21.1875 15.6875 12.917969 34.277343 17.886719 53.765625 21.1875zm0 0"/><path d="m298.007812 396.394531c-2.039062 0-4.089843-.617187-5.855468-1.894531l-26.761719-19.335938c-4.476563-3.234374-5.480469-9.484374-2.246094-13.960937 3.234375-4.480469 9.484375-5.484375 13.960938-2.25l19.289062 13.9375 28.777344-33.679687c3.585937-4.199219 9.898437-4.695313 14.097656-1.109376 4.199219 3.585938 4.695313 9.898438 1.109375 14.097657l-34.765625 40.691406c-1.96875 2.304687-4.773437 3.503906-7.605469 3.503906zm0 0"/></svg>