<svg enable-background="new 0 0 512 512" height="512" viewBox="0 0 512 512" width="512" xmlns="http://www.w3.org/2000/svg"><g id="_x31_7_Search_Engine"><g><path d="m455.229 56.77c-35.949-35.949-83.757-55.745-134.63-55.745-.016 0-.031 0-.047 0-50.896.008-98.719 19.834-134.668 55.822-35.957 35.918-55.76 83.725-55.76 134.606 0 33.351 8.556 65.36 24.541 93.6l-138.605 138.598c-19.95 19.95-19.995 52.291.063 72.349 19.966 19.966 52.32 19.967 72.287 0l138.691-138.691c15.993 9.021 33.238 15.67 51.368 19.748-1.786 7.288-2.837 14.86-2.837 22.69 0 52.678 42.851 95.529 95.521 95.529 52.678 0 95.529-42.851 95.529-95.529 0-23.959-8.931-45.826-23.555-62.612 4.138-3.445 8.212-7.041 12.102-10.935 74.247-74.326 74.24-195.19 0-269.43zm-242.088 291.964-135.998 135.999c-13.71 13.71-36.042 13.71-49.753 0-13.972-13.972-13.651-36.227-.062-49.815l135.991-135.983c6.651 9.689 14.288 18.91 22.565 27.187 8.148 8.15 19.116 17.048 27.257 22.612zm158.012 130.607c-43.886 0-79.586-35.708-79.586-79.593s35.7-79.586 79.586-79.586 79.593 35.7 79.593 79.586-35.707 79.593-79.593 79.593zm60.521-153.434c-16.49-13.537-37.568-21.682-60.521-21.682-39.21 0-72.945 23.765-87.644 57.632-33.987-7.332-63.866-24.518-86.358-47.011-.064-.064-.122-.134-.186-.198-31.493-31.587-50.905-75.45-50.905-123.196 0-46.625 18.146-90.425 51.091-123.339 32.945-32.977 76.769-51.146 123.409-51.153h.039c46.609 0 90.425 18.138 123.362 51.075 68.031 68.031 68.031 178.788 0 246.896-3.943 3.945-8.082 7.553-12.287 10.976z"/><path d="m320.498 48.778c-4.404 0-7.968 3.564-7.968 7.968s3.564 7.968 7.968 7.968c69.898 0 126.771 56.872 126.778 126.771 0 4.404 3.572 7.968 7.968 7.968 4.404 0 7.968-3.572 7.968-7.968-.008-78.691-64.031-142.707-142.714-142.707z"/><path d="m389.377 376.956-28.681 28.681-7.758-7.758c-3.112-3.112-8.155-3.112-11.267 0s-3.112 8.155 0 11.267l13.391 13.391c3.112 3.112 8.155 3.113 11.267 0l34.315-34.315c3.112-3.112 3.112-8.155 0-11.267s-8.155-3.111-11.267.001z"/></g></g></svg>