<svg id="Glyph" height="512" viewBox="0 0 48 48" width="512" xmlns="http://www.w3.org/2000/svg"><g><path d="m24 9.25c-3.31714 0-6.47876 1.10736-9.0686 3.1344l.00708-1.20862c.00244-.41406-.33154-.75195-.74561-.75439-.42871-.01611-.75244.33105-.75439.74561l-.0166 2.82861c-.00244.41406.33154.75195.74561.75439l2.82812.01709h.00439c.41211 0 .74756-.33301.75-.74561.00244-.41406-.33105-.75195-.74561-.75439l-.7334-.00446c2.24695-1.6228 4.92414-2.51263 7.72901-2.51263 7.30615 0 13.25 5.94385 13.25 13.25 0 2.33154-.61816 4.62451-1.78809 6.63232-.2085.35791-.0874.81689.27051 1.02539.34021.19818.81921.08331 1.02539-.27051 1.30323-2.23632 1.99219-4.79101 1.99219-7.3872 0-8.1333-6.6167-14.75-14.75-14.75z"/><path d="m33.83252 33.25-2.82812-.01709c-.00146 0-.00293 0-.00439 0-.41211 0-.74756.33301-.75.74561-.00244.41406.33105.75195.74561.75439l.7334.00446c-2.24696 1.6228-4.92415 2.51263-7.72902 2.51263-7.30615 0-13.25-5.94385-13.25-13.25 0-2.33154.61816-4.62451 1.78809-6.63232.2085-.35791.0874-.81689-.27051-1.02539-.35742-.20898-.81689-.0874-1.02539.27051-1.30323 2.23632-1.99219 4.79101-1.99219 7.3872 0 8.1333 6.6167 14.75 14.75 14.75 3.31714 0 6.47876-1.10736 9.0686-3.1344l-.00708 1.20862c-.00244.41406.33154.75195.74561.75439h.00439c.41211 0 .74756-.33301.75-.74561l.0166-2.82861c.00245-.41406-.33154-.75195-.7456-.75439z"/><path d="m24.20703 31.7207c4.44141-1.26904 7.54297-5.38086 7.54297-9.99951v-2.72119c0-.33496-.22217-.62891-.54395-.72119l-7-2c-.13477-.03809-.27734-.03809-.41211 0l-7 2c-.32177.09228-.54394.38623-.54394.72119v2.72119c0 4.61914 3.10254 8.73096 7.54492 9.99951.13458.03803.27759.03803.41211 0zm-1.20703-4.97436c-.1922.00024-.38507-.07092-.53027-.21606l-2-2c-.29297-.29297-.29297-.76758 0-1.06055s.76758-.29297 1.06055 0l1.46972 1.46972 3.46973-3.46973c.29297-.29297.76758-.29297 1.06055 0s.29297.76758 0 1.06055c0 0-3.99805 3.99805-4 4-.14289.14289-.33625.21582-.53028.21607z"/></g></svg>