<svg id="Capa_1" enable-background="new 0 0 486.315 486.315" height="512" viewBox="0 0 486.315 486.315" width="512" xmlns="http://www.w3.org/2000/svg"><g><path d="m400.45 172.043h-392.618c-4.323 0-7.827-3.504-7.827-7.827v-81.796c.012-10.452 8.482-18.921 18.933-18.933h40.148c4.322 0 7.827 3.503 7.827 7.826v.001 32.384c.024 1.801 1.478 3.255 3.28 3.279h27.265c1.801-.023 3.256-1.477 3.28-3.279v-32.385c0-4.322 3.503-7.827 7.826-7.827h.001 70.838c4.322 0 7.827 3.503 7.827 7.826v.001 32.384c.023 1.801 1.478 3.255 3.279 3.279h27.266c1.801-.023 3.256-1.477 3.279-3.279v-32.384c0-4.323 3.504-7.827 7.827-7.827h70.837c4.322 0 7.827 3.503 7.827 7.826v.001 32.384c.024 1.801 1.479 3.255 3.28 3.279h27.266c1.801-.023 3.255-1.478 3.279-3.279v-32.384c0-4.322 3.503-7.827 7.826-7.827h.001 40.148c10.452.012 18.922 8.482 18.933 18.933v81.796c-.001 4.324-3.505 7.828-7.828 7.828zm-384.791-15.654h376.964v-73.969c-.024-1.801-1.478-3.256-3.279-3.28h-32.322v24.557c-.012 10.451-8.481 18.92-18.932 18.932h-27.266c-10.451-.012-18.921-8.481-18.933-18.932v-24.557h-55.184v24.557c-.012 10.451-8.482 18.921-18.933 18.932h-27.266c-10.451-.012-18.92-8.481-18.932-18.932v-24.557h-55.185v24.557c-.012 10.451-8.482 18.921-18.933 18.932h-27.264c-10.451-.012-18.921-8.481-18.933-18.932v-24.557h-32.323c-1.801.024-3.256 1.478-3.28 3.28v73.969z"/><path d="m298.872 393.414h-279.931c-10.456-.012-18.929-8.485-18.941-18.94v-210.262c0-4.323 3.504-7.827 7.827-7.827h392.628c4.322 0 7.827 3.503 7.827 7.826v.001 113.813c-.032 4.35-3.583 7.851-7.933 7.819-.331-.002-.662-.026-.99-.07-49.24-7.305-94.793 32.233-94.401 82.041-.004 5.452.529 10.892 1.592 16.24.817 4.275-1.987 8.402-6.261 9.219-.469.089-.942.136-1.417.14zm-283.219-221.376v202.435c.024 1.805 1.482 3.263 3.287 3.287h270.86c-6.463-59.215 43.333-111.732 102.828-108.331v-97.39z"/><path d="m216.36 122.626h-24.439c-11.234-.013-20.337-9.116-20.35-20.35v-61.932c.013-11.234 9.116-20.337 20.35-20.35h24.439c11.234.013 20.337 9.116 20.35 20.35v61.932c-.013 11.234-9.116 20.337-20.35 20.35zm-24.438-86.978c-2.579.034-4.662 2.117-4.696 4.696v61.932c.034 2.579 2.117 4.662 4.696 4.696h24.439c2.579-.034 4.662-2.117 4.696-4.696v-61.932c-.034-2.579-2.117-4.662-4.696-4.696z"/><path d="m96.045 122.626h-24.438c-11.234-.013-20.337-9.116-20.35-20.35v-61.932c.013-11.234 9.116-20.337 20.35-20.35h24.438c11.234.013 20.337 9.116 20.35 20.35v61.932c-.014 11.234-9.117 20.337-20.35 20.35zm-24.438-86.978c-2.579.034-4.662 2.117-4.696 4.696v61.932c.034 2.579 2.117 4.662 4.696 4.696h24.438c2.58-.034 4.662-2.117 4.696-4.696v-61.932c-.034-2.579-2.117-4.662-4.696-4.696z"/><path d="m336.676 122.626h-24.439c-11.234-.013-20.337-9.116-20.35-20.35v-61.932c.013-11.234 9.116-20.337 20.35-20.35h24.439c11.234.013 20.337 9.116 20.35 20.35v61.932c-.013 11.234-9.116 20.337-20.35 20.35zm-24.438-86.978c-2.579.034-4.662 2.117-4.696 4.696v61.932c.034 2.579 2.117 4.662 4.696 4.696h24.439c2.579-.034 4.662-2.117 4.696-4.696v-61.932c-.034-2.579-2.117-4.662-4.696-4.696z"/><path d="m88.618 261.689h-27.273c-10.451-.012-18.92-8.482-18.932-18.933v-27.272c.012-10.451 8.481-18.921 18.932-18.933h27.273c10.451.012 18.921 8.482 18.932 18.933v27.272c-.011 10.451-8.481 18.921-18.932 18.933zm-27.273-49.484c-1.801.024-3.255 1.478-3.279 3.28v27.272c.023 1.801 1.478 3.256 3.279 3.28h27.273c1.801-.024 3.255-1.479 3.279-3.28v-27.272c-.023-1.801-1.477-3.256-3.279-3.28z"/><path d="m174.724 261.689h-27.272c-10.452-.012-18.922-8.482-18.933-18.933v-27.272c.012-10.452 8.482-18.921 18.933-18.933h27.272c10.452.012 18.922 8.482 18.933 18.933v27.272c-.012 10.452-8.481 18.921-18.933 18.933zm-27.272-49.484c-1.801.024-3.256 1.478-3.28 3.28v27.272c.024 1.801 1.478 3.256 3.28 3.28h27.272c1.801-.024 3.256-1.478 3.28-3.28v-27.272c-.024-1.801-1.478-3.256-3.28-3.28z"/><path d="m260.83 261.689h-27.272c-10.452-.012-18.922-8.482-18.933-18.933v-27.272c.012-10.452 8.482-18.921 18.933-18.933h27.272c10.452.012 18.922 8.482 18.933 18.933v27.272c-.012 10.452-8.481 18.921-18.933 18.933zm-27.272-49.484c-1.801.024-3.256 1.478-3.28 3.28v27.272c.024 1.801 1.478 3.256 3.28 3.28h27.272c1.801-.024 3.256-1.478 3.279-3.28v-27.272c-.024-1.801-1.478-3.256-3.279-3.28z"/><path d="m346.937 261.689h-27.273c-10.451-.012-18.921-8.482-18.932-18.933v-27.272c.012-10.451 8.481-18.921 18.932-18.933h27.273c10.451.012 18.921 8.482 18.932 18.933v27.272c-.012 10.451-8.481 18.921-18.932 18.933zm-27.273-49.484c-1.801.024-3.255 1.479-3.279 3.28v27.272c.023 1.801 1.477 3.256 3.279 3.28h27.273c1.801-.024 3.255-1.479 3.279-3.28v-27.272c-.023-1.801-1.477-3.256-3.279-3.28z"/><path d="m88.618 353.246h-27.273c-10.451-.012-18.92-8.482-18.932-18.933v-27.272c.012-10.451 8.481-18.921 18.932-18.933h27.272c10.451.012 18.921 8.482 18.932 18.933v27.272c-.01 10.451-8.48 18.921-18.931 18.933zm-27.273-49.484c-1.801.024-3.255 1.478-3.279 3.28v27.272c.023 1.801 1.478 3.256 3.279 3.28h27.273c1.801-.024 3.255-1.478 3.279-3.28v-27.272c-.023-1.801-1.477-3.256-3.279-3.28z"/><path d="m174.724 353.246h-27.272c-10.452-.012-18.922-8.482-18.933-18.933v-27.272c.012-10.452 8.482-18.922 18.933-18.933h27.272c10.452.012 18.922 8.482 18.933 18.933v27.272c-.011 10.452-8.481 18.921-18.933 18.933zm-27.272-49.484c-1.801.024-3.256 1.478-3.28 3.28v27.272c.024 1.801 1.478 3.256 3.28 3.28h27.272c1.801-.024 3.256-1.478 3.28-3.28v-27.272c-.024-1.801-1.478-3.256-3.28-3.28z"/><path d="m260.83 353.246h-27.272c-10.452-.012-18.922-8.482-18.933-18.933v-27.272c.012-10.452 8.482-18.922 18.933-18.933h27.272c10.452.012 18.922 8.482 18.933 18.933v27.272c-.012 10.452-8.481 18.921-18.933 18.933zm-27.272-49.484c-1.801.024-3.256 1.478-3.28 3.28v27.272c.024 1.801 1.478 3.256 3.28 3.28h27.272c1.801-.024 3.256-1.478 3.279-3.28v-27.272c-.024-1.801-1.478-3.256-3.279-3.28z"/><path d="m387.808 466.32c-54.378-.062-98.445-44.129-98.507-98.507 5.412-130.682 191.622-130.644 197.013.001-.061 54.378-44.128 98.445-98.506 98.506zm0-181.359c-45.737.052-82.801 37.116-82.853 82.853 4.551 109.916 161.171 109.884 165.706-.001-.052-45.737-37.116-82.801-82.853-82.852z"/><path d="m458.043 354.658c-3.061-3.052-8.016-3.044-11.068.016 0 0-.001.001-.001.001l-4.476 4.49c-10.585-64.925-107.337-62.066-110.265 8.649.01 30.704 24.909 55.586 55.613 55.576 7.938-.003 15.783-1.705 23.008-4.993 3.933-1.794 5.666-6.437 3.872-10.37s-6.437-5.666-10.37-3.872c-25.882 12.17-56.806-7.708-56.469-36.342.024-22.038 17.883-39.897 39.921-39.921 19.179-.171 35.149 13.847 39.041 31.535l-4.73-4.715c-7.595-7.065-18.133 3.527-11.052 11.086l17.991 17.935c.069.069.145.129.217.195.014.014.03.026.044.04.192.175.389.338.593.49 1.093.849 2.404 1.37 3.782 1.502.292.035.587.054.881.056h.006.002.007c.293-.002.586-.02.877-.055 1.39-.132 2.712-.66 3.811-1.521.19-.143.374-.296.553-.459.025-.023.051-.044.075-.068.072-.067.148-.127.218-.198l17.935-17.99c3.053-3.06 3.045-8.015-.016-11.067z"/></g></svg>